<?xml version="1.0" encoding="UTF-8"?>
<svg id="_레이어_2" data-name="레이어 2" xmlns="http://www.w3.org/2000/svg" viewBox="0 0 818.28 166.04">
  <defs>
    <style>
      .cls-1 {
        fill: #141414;
      }
    </style>
  </defs>
  <g id="_레이어_1-2" data-name="레이어 1">
    <g>
      <g>
        <polygon class="cls-1" points="596.58 100.29 617.66 100.29 617.66 29.91 497.03 29.91 497.03 50.99 596.58 50.99 596.58 61.17 497.03 61.17 497.03 82.25 596.58 82.25 596.58 100.29"/>
        <polygon class="cls-1" points="649.32 50.99 716.59 50.99 716.59 29.91 628.24 29.91 628.24 136.22 716.59 136.22 716.59 115.14 649.32 115.14 649.32 50.99"/>
        <polygon class="cls-1" points="568.24 91.27 547.16 91.27 547.16 115.14 497.62 115.14 497.62 136.22 617.77 136.22 617.77 115.14 568.24 115.14 568.24 91.27"/>
        <polygon class="cls-1" points="459.9 0 430.82 83.76 459.93 166.04 479.8 159.01 453.16 83.69 479.81 6.91 459.9 0"/>
        <polygon class="cls-1" points="789.2 0 769.28 6.91 795.94 83.69 769.3 159.01 789.17 166.04 818.28 83.76 789.2 0"/>
        <polygon class="cls-1" points="728.06 72.53 713.49 72.53 713.49 93.61 728.06 93.61 728.06 136.65 749.14 136.65 749.14 29.75 728.06 29.75 728.06 72.53"/>
      </g>
      <g>
        <polygon class="cls-1" points="47.76 6.81 0 159.5 69.44 159.5 69.44 139.45 27.88 139.45 68.91 6.81 47.76 6.81"/>
        <polygon class="cls-1" points="99.65 6.89 100.19 72.76 96.28 72.76 95.74 6.73 75.69 6.89 76.95 158.83 96.99 158.66 96.45 92.8 100.36 92.8 100.9 158.83 120.95 158.66 119.7 6.73 99.65 6.89"/>
        <polygon class="cls-1" points="134.23 116.67 184.28 116.67 184.28 158.75 203.08 158.75 203.08 116.67 253.13 116.67 253.13 97.87 134.23 97.87 134.23 116.67"/>
        <polygon class="cls-1" points="385.47 120.25 337.84 120.25 384.6 97.07 266.64 97.07 266.64 113.36 315.05 113.36 268.28 136.54 314.18 136.54 267.88 158.87 386.71 158.87 386.71 142.58 339.16 142.58 385.47 120.25"/>
        <polygon class="cls-1" points="342.85 86.78 342.85 67.99 313.77 67.99 345.71 37.84 312.99 37.84 345.24 6.55 266.92 6.55 266.92 25.34 298.88 25.34 266.62 56.63 298.42 56.63 266.48 86.78 342.85 86.78"/>
        <polygon class="cls-1" points="367.41 6.89 367.41 37.57 348.98 37.57 348.98 57.61 367.41 57.61 367.41 85.85 387.46 85.85 387.46 6.89 367.41 6.89"/>
        <polygon class="cls-1" points="133.45 28.16 170.38 28.16 202.23 9.46 207 6.66 170.07 6.66 133.45 28.16"/>
        <polygon class="cls-1" points="200.92 37.67 252.33 6.66 216.14 6.66 185.15 25.35 185.15 25.35 133.74 56.37 184.35 56.37 133.45 86.25 170.38 86.25 202.23 67.56 253.13 37.67 200.92 37.67"/>
      </g>
    </g>
  </g>
</svg>